{
	"asset":{
		"generator":"Khronos glTF Blender I/O v4.0.44",
		"version":"2.0"
	},
	"scene":0,
	"scenes":[
		{
			"name":"Scene",
			"nodes":[
				0,
				1,
				2,
				3,
				4,
				5,
				6
			]
		}
	],
	"nodes":[
		{
			"mesh":0,
			"name":"Peca",
			"rotation":[
				-0.3560795783996582,
				-0.14014682173728943,
				-0.6042848229408264,
				0.6988606452941895
			],
			"scale":[
				0.10206148773431778,
				0.10206148028373718,
				0.10206148028373718
			],
			"translation":[
				0.9552401304244995,
				3.5540530681610107,
				-0.41623416543006897
			]
		},
		{
			"mesh":1,
			"name":"Contorno Ojo",
			"rotation":[
				0,
				0,
				-0.5928251147270203,
				0.8053312301635742
			],
			"scale":[
				0.2933802008628845,
				0.2933802008628845,
				0.29338017106056213
			],
			"translation":[
				0.8714614510536194,
				3.8430051803588867,
				0.04056856781244278
			]
		},
		{
			"mesh":2,
			"name":"Ojo",
			"scale":[
				0.36361852288246155,
				0.36361852288246155,
				0.36361852288246155
			],
			"translation":[
				0.7412863373756409,
				3.801953077316284,
				0.03903629258275032
			]
		},
		{
			"mesh":3,
			"name":"Antena 1",
			"scale":[
				0.052977193146944046,
				0.4838292896747589,
				0.052977193146944046
			],
			"translation":[
				-0.141215518116951,
				4.572773456573486,
				0.23394770920276642
			]
		},
		{
			"mesh":4,
			"name":"Cuerpo",
			"rotation":[
				0.006820390932261944,
				0,
				0,
				0.9999767541885376
			],
			"scale":[
				1.8097422122955322,
				1.8097420930862427,
				1.8097420930862427
			],
			"translation":[
				0,
				1.388185977935791,
				0
			]
		},
		{
			"mesh":5,
			"name":"Cabeza",
			"scale":[
				1.0450190305709839,
				1.0312904119491577,
				1.0684731006622314
			],
			"translation":[
				0,
				3.566394090652466,
				0
			]
		},
		{
			"mesh":6,
			"name":"antena 2",
			"rotation":[
				0,
				0,
				-0.03583469241857529,
				0.9993577599525452
			],
			"scale":[
				0.06594794243574142,
				0.6022883653640747,
				0.04931943863630295
			],
			"translation":[
				-0.32777702808380127,
				4.599262237548828,
				-0.23133695125579834
			]
		}
	],
	"materials":[
		{
			"doubleSided":true,
			"name":"Material.005",
			"pbrMetallicRoughness":{}
		},
		{
			"doubleSided":true,
			"name":"Material.006",
			"pbrMetallicRoughness":{}
		},
		{
			"doubleSided":true,
			"name":"Material.004",
			"pbrMetallicRoughness":{}
		},
		{
			"doubleSided":true,
			"name":"Material.002",
			"pbrMetallicRoughness":{}
		},
		{
			"doubleSided":true,
			"name":"Material",
			"pbrMetallicRoughness":{}
		},
		{
			"doubleSided":true,
			"name":"Linea",
			"pbrMetallicRoughness":{}
		},
		{
			"doubleSided":true,
			"name":"Linea 2",
			"pbrMetallicRoughness":{}
		},
		{
			"doubleSided":true,
			"name":"Material.007",
			"pbrMetallicRoughness":{}
		},
		{
			"doubleSided":true,
			"name":"Material.008",
			"pbrMetallicRoughness":{}
		}
	],
	"meshes":[
		{
			"name":"Cilindro.002",
			"primitives":[
				{
					"attributes":{
						"POSITION":0,
						"NORMAL":1
					},
					"indices":2,
					"material":0
				},
				{
					"attributes":{
						"POSITION":3,
						"NORMAL":4
					},
					"indices":5,
					"material":1
				}
			]
		},
		{
			"name":"Torus.002",
			"primitives":[
				{
					"attributes":{
						"POSITION":6,
						"NORMAL":7,
						"TEXCOORD_0":8
					},
					"indices":9,
					"material":2
				}
			]
		},
		{
			"name":"Esfera.003",
			"primitives":[
				{
					"attributes":{
						"POSITION":10,
						"NORMAL":11
					},
					"indices":12,
					"material":3
				}
			]
		},
		{
			"name":"Cilindro",
			"primitives":[
				{
					"attributes":{
						"POSITION":13,
						"NORMAL":14
					},
					"indices":15
				}
			]
		},
		{
			"name":"Esfera.001",
			"primitives":[
				{
					"attributes":{
						"POSITION":16,
						"NORMAL":17,
						"TEXCOORD_0":18
					},
					"indices":19,
					"material":1
				}
			]
		},
		{
			"name":"Esfera.002",
			"primitives":[
				{
					"attributes":{
						"POSITION":20,
						"NORMAL":21,
						"TEXCOORD_0":22
					},
					"indices":23,
					"material":4
				},
				{
					"attributes":{
						"POSITION":24,
						"NORMAL":25,
						"TEXCOORD_0":26
					},
					"indices":27,
					"material":5
				},
				{
					"attributes":{
						"POSITION":28,
						"NORMAL":29,
						"TEXCOORD_0":30
					},
					"indices":31,
					"material":6
				}
			]
		},
		{
			"name":"Cilindro.001",
			"primitives":[
				{
					"attributes":{
						"POSITION":32,
						"NORMAL":33
					},
					"indices":34,
					"material":7
				},
				{
					"attributes":{
						"POSITION":35,
						"NORMAL":36
					},
					"indices":37,
					"material":8
				}
			]
		}
	],
	"accessors":[
		{
			"bufferView":0,
			"componentType":5126,
			"count":886,
			"max":[
				1,
				0.45115965604782104,
				1
			],
			"min":[
				-1,
				-1,
				-1
			],
			"type":"VEC3"
		},
		{
			"bufferView":1,
			"componentType":5126,
			"count":886,
			"type":"VEC3"
		},
		{
			"bufferView":2,
			"componentType":5123,
			"count":5154,
			"type":"SCALAR"
		},
		{
			"bufferView":3,
			"componentType":5126,
			"count":156,
			"max":[
				0.45158401131629944,
				0.7171421647071838,
				0.4542546570301056
			],
			"min":[
				-0.4618295729160309,
				0.3565727472305298,
				-0.45915916562080383
			],
			"type":"VEC3"
		},
		{
			"bufferView":4,
			"componentType":5126,
			"count":156,
			"type":"VEC3"
		},
		{
			"bufferView":5,
			"componentType":5123,
			"count":786,
			"type":"SCALAR"
		},
		{
			"bufferView":6,
			"componentType":5126,
			"count":2616,
			"max":[
				1.25,
				0.3037887513637543,
				1.25
			],
			"min":[
				-1.25,
				-0.25,
				-1.25
			],
			"type":"VEC3"
		},
		{
			"bufferView":7,
			"componentType":5126,
			"count":2616,
			"type":"VEC3"
		},
		{
			"bufferView":8,
			"componentType":5126,
			"count":2616,
			"type":"VEC2"
		},
		{
			"bufferView":9,
			"componentType":5123,
			"count":3924,
			"type":"SCALAR"
		},
		{
			"bufferView":10,
			"componentType":5126,
			"count":482,
			"max":[
				1.000000238418579,
				1,
				1.0000003576278687
			],
			"min":[
				-0.9999998211860657,
				-1,
				-0.9999991655349731
			],
			"type":"VEC3"
		},
		{
			"bufferView":11,
			"componentType":5126,
			"count":482,
			"type":"VEC3"
		},
		{
			"bufferView":12,
			"componentType":5123,
			"count":2880,
			"type":"SCALAR"
		},
		{
			"bufferView":13,
			"componentType":5126,
			"count":256,
			"max":[
				1,
				1.0540519952774048,
				1
			],
			"min":[
				-1,
				-1,
				-1
			],
			"type":"VEC3"
		},
		{
			"bufferView":14,
			"componentType":5126,
			"count":256,
			"type":"VEC3"
		},
		{
			"bufferView":15,
			"componentType":5123,
			"count":1524,
			"type":"SCALAR"
		},
		{
			"bufferView":16,
			"componentType":5126,
			"count":678,
			"max":[
				1.000000238418579,
				1,
				1.0000003576278687
			],
			"min":[
				-0.9999998211860657,
				-1,
				-0.9999991655349731
			],
			"type":"VEC3"
		},
		{
			"bufferView":17,
			"componentType":5126,
			"count":678,
			"type":"VEC3"
		},
		{
			"bufferView":18,
			"componentType":5126,
			"count":678,
			"type":"VEC2"
		},
		{
			"bufferView":19,
			"componentType":5123,
			"count":3252,
			"type":"SCALAR"
		},
		{
			"bufferView":20,
			"componentType":5126,
			"count":745,
			"max":[
				0.9599190354347229,
				1,
				0.9599191546440125
			],
			"min":[
				-0.9599186778068542,
				-0.5934423804283142,
				-0.9599181413650513
			],
			"type":"VEC3"
		},
		{
			"bufferView":21,
			"componentType":5126,
			"count":745,
			"type":"VEC3"
		},
		{
			"bufferView":22,
			"componentType":5126,
			"count":745,
			"type":"VEC2"
		},
		{
			"bufferView":23,
			"componentType":5123,
			"count":3786,
			"type":"SCALAR"
		},
		{
			"bufferView":24,
			"componentType":5126,
			"count":128,
			"max":[
				0.9490596652030945,
				0.8380489945411682,
				0.9490598440170288
			],
			"min":[
				-0.9490594267845154,
				-0.35603728890419006,
				-0.9490589499473572
			],
			"type":"VEC3"
		},
		{
			"bufferView":25,
			"componentType":5126,
			"count":128,
			"type":"VEC3"
		},
		{
			"bufferView":26,
			"componentType":5126,
			"count":128,
			"type":"VEC2"
		},
		{
			"bufferView":27,
			"componentType":5123,
			"count":384,
			"type":"SCALAR"
		},
		{
			"bufferView":28,
			"componentType":5126,
			"count":52,
			"max":[
				0.6956761479377747,
				0.4656367897987366,
				0.8379988074302673
			],
			"min":[
				-0.8393077850341797,
				0.42935892939567566,
				-0.8382327556610107
			],
			"type":"VEC3"
		},
		{
			"bufferView":29,
			"componentType":5126,
			"count":52,
			"type":"VEC3"
		},
		{
			"bufferView":30,
			"componentType":5126,
			"count":52,
			"type":"VEC2"
		},
		{
			"bufferView":31,
			"componentType":5123,
			"count":150,
			"type":"SCALAR"
		},
		{
			"bufferView":32,
			"componentType":5126,
			"count":231,
			"max":[
				1,
				1.0526793003082275,
				1
			],
			"min":[
				-1,
				-1,
				-1
			],
			"type":"VEC3"
		},
		{
			"bufferView":33,
			"componentType":5126,
			"count":231,
			"type":"VEC3"
		},
		{
			"bufferView":34,
			"componentType":5123,
			"count":879,
			"type":"SCALAR"
		},
		{
			"bufferView":35,
			"componentType":5126,
			"count":482,
			"max":[
				0.943638026714325,
				1.0526793003082275,
				0.9436379671096802
			],
			"min":[
				-0.943638026714325,
				-0.7292036414146423,
				-0.9436380863189697
			],
			"type":"VEC3"
		},
		{
			"bufferView":36,
			"componentType":5126,
			"count":482,
			"type":"VEC3"
		},
		{
			"bufferView":37,
			"componentType":5123,
			"count":2085,
			"type":"SCALAR"
		}
	],
	"bufferViews":[
		{
			"buffer":0,
			"byteLength":10632,
			"byteOffset":0,
			"target":34962
		},
		{
			"buffer":0,
			"byteLength":10632,
			"byteOffset":10632,
			"target":34962
		},
		{
			"buffer":0,
			"byteLength":10308,
			"byteOffset":21264,
			"target":34963
		},
		{
			"buffer":0,
			"byteLength":1872,
			"byteOffset":31572,
			"target":34962
		},
		{
			"buffer":0,
			"byteLength":1872,
			"byteOffset":33444,
			"target":34962
		},
		{
			"buffer":0,
			"byteLength":1572,
			"byteOffset":35316,
			"target":34963
		},
		{
			"buffer":0,
			"byteLength":31392,
			"byteOffset":36888,
			"target":34962
		},
		{
			"buffer":0,
			"byteLength":31392,
			"byteOffset":68280,
			"target":34962
		},
		{
			"buffer":0,
			"byteLength":20928,
			"byteOffset":99672,
			"target":34962
		},
		{
			"buffer":0,
			"byteLength":7848,
			"byteOffset":120600,
			"target":34963
		},
		{
			"buffer":0,
			"byteLength":5784,
			"byteOffset":128448,
			"target":34962
		},
		{
			"buffer":0,
			"byteLength":5784,
			"byteOffset":134232,
			"target":34962
		},
		{
			"buffer":0,
			"byteLength":5760,
			"byteOffset":140016,
			"target":34963
		},
		{
			"buffer":0,
			"byteLength":3072,
			"byteOffset":145776,
			"target":34962
		},
		{
			"buffer":0,
			"byteLength":3072,
			"byteOffset":148848,
			"target":34962
		},
		{
			"buffer":0,
			"byteLength":3048,
			"byteOffset":151920,
			"target":34963
		},
		{
			"buffer":0,
			"byteLength":8136,
			"byteOffset":154968,
			"target":34962
		},
		{
			"buffer":0,
			"byteLength":8136,
			"byteOffset":163104,
			"target":34962
		},
		{
			"buffer":0,
			"byteLength":5424,
			"byteOffset":171240,
			"target":34962
		},
		{
			"buffer":0,
			"byteLength":6504,
			"byteOffset":176664,
			"target":34963
		},
		{
			"buffer":0,
			"byteLength":8940,
			"byteOffset":183168,
			"target":34962
		},
		{
			"buffer":0,
			"byteLength":8940,
			"byteOffset":192108,
			"target":34962
		},
		{
			"buffer":0,
			"byteLength":5960,
			"byteOffset":201048,
			"target":34962
		},
		{
			"buffer":0,
			"byteLength":7572,
			"byteOffset":207008,
			"target":34963
		},
		{
			"buffer":0,
			"byteLength":1536,
			"byteOffset":214580,
			"target":34962
		},
		{
			"buffer":0,
			"byteLength":1536,
			"byteOffset":216116,
			"target":34962
		},
		{
			"buffer":0,
			"byteLength":1024,
			"byteOffset":217652,
			"target":34962
		},
		{
			"buffer":0,
			"byteLength":768,
			"byteOffset":218676,
			"target":34963
		},
		{
			"buffer":0,
			"byteLength":624,
			"byteOffset":219444,
			"target":34962
		},
		{
			"buffer":0,
			"byteLength":624,
			"byteOffset":220068,
			"target":34962
		},
		{
			"buffer":0,
			"byteLength":416,
			"byteOffset":220692,
			"target":34962
		},
		{
			"buffer":0,
			"byteLength":300,
			"byteOffset":221108,
			"target":34963
		},
		{
			"buffer":0,
			"byteLength":2772,
			"byteOffset":221408,
			"target":34962
		},
		{
			"buffer":0,
			"byteLength":2772,
			"byteOffset":224180,
			"target":34962
		},
		{
			"buffer":0,
			"byteLength":1758,
			"byteOffset":226952,
			"target":34963
		},
		{
			"buffer":0,
			"byteLength":5784,
			"byteOffset":228712,
			"target":34962
		},
		{
			"buffer":0,
			"byteLength":5784,
			"byteOffset":234496,
			"target":34962
		},
		{
			"buffer":0,
			"byteLength":4170,
			"byteOffset":240280,
			"target":34963
		}
	],
	"buffers":[
		{
			"byteLength":244452,
			"uri":"BB-8-1.bin"
		}
	]
}
