<svg width="9" height="9" viewBox="0 0 9 9" fill="none" xmlns="http://www.w3.org/2000/svg">
<path d="M8.39114 2.69678H0V8.69045C0 8.85528 0.134858 8.99013 0.299684 8.99013H8.69083C8.85565 8.99013 8.99051 8.85528 8.99051 8.69045V2.69678H8.39114ZM2.97886 7.19203H6.01165C6.17949 7.19203 6.31134 7.32689 6.31134 7.49172C6.31134 7.65654 6.17949 7.7914 6.01165 7.7914H2.97886C2.81102 7.7914 2.67917 7.65654 2.67917 7.49172C2.67917 7.32689 2.81102 7.19203 2.97886 7.19203Z" fill="black"/>
<path d="M8.86461 2.09779L7.75277 0.149842C7.69885 0.0569262 7.59998 0 7.49208 0H4.79492V2.09779H8.86461Z" fill="black"/>
<path d="M4.19542 2.09779V0H1.49827C1.39037 0 1.2915 0.0569262 1.23751 0.149842L0.125732 2.09779H4.19542Z" fill="black"/>
</svg>
